<?xml version="1.0" encoding="utf-8"?>
<!-- Generator: Adobe Illustrator 18.0.0, SVG Export Plug-In . SVG Version: 6.00 Build 0)  -->
<!DOCTYPE svg PUBLIC "-//W3C//DTD SVG 1.1//EN" "http://www.w3.org/Graphics/SVG/1.1/DTD/svg11.dtd">
<svg version="1.1" id="Calque_1" xmlns="http://www.w3.org/2000/svg" xmlns:xlink="http://www.w3.org/1999/xlink" x="0px" y="0px"
	 viewBox="0 0 141.7 141.7" enable-background="new 0 0 141.7 141.7" xml:space="preserve">
<g>
	<rect x="0" y="0" fill="#153F70" width="141.7" height="141.7"/>
	<g>
		<g>
			<path fill="#FFFFFF" d="M32,65.9c-2-2.2-4.5-3.5-7.5-3.5c-5,0-8.8,4.3-8.8,9.2c0,4.9,3.7,9.2,8.8,9.2c3.1,0,5.9-1.5,7.9-3.8v2.8
				c-2.2,1.9-4.9,3-7.8,3c-6.3,0-11-4.9-11-11.2c0-6.2,4.7-11.1,11-11.1c2.8,0,5.3,0.8,7.4,2.6V65.9z"/>
			<path fill="#FFFFFF" d="M55.6,71.7c0,6.3-4.9,11.1-11.2,11.1c-6.1,0-11.1-5-11.1-11.1c0-6.1,4.9-11.2,11.1-11.2
				C50.6,60.5,55.6,65.3,55.6,71.7z M35.3,71.7c0,4.9,3.8,9.2,8.9,9.2c5.2,0,9.3-4,9.3-9.2c0-5.3-4-9.2-9.3-9.2
				C39.1,62.5,35.3,66.8,35.3,71.7z"/>
			<path fill="#FFFFFF" d="M81.9,71.9c-0.1,5.4,3.6,9,8.6,9c3.3,0,6-2,7.5-4.9l1.8,1c-1.9,3.7-5.4,5.8-9.6,5.8
				c-6.3,0-10.4-5.1-10.4-11.2c0-6,4.1-11.1,10.4-11.1c6.5,0,10.3,5.2,10.3,11.3H81.9z M98.3,69.9c-0.5-3.9-3.7-7.4-8.1-7.4
				c-4.3,0-8,3.4-8.3,7.4H98.3z"/>
			<path fill="#FFFFFF" d="M128.4,53.9c0,1.1-0.8,1.9-1.9,1.9c-1.1,0-1.9-0.8-1.9-1.9c0-1,0.8-1.9,1.9-1.9
				C127.5,52,128.4,52.9,128.4,53.9z M127.5,82.4h-2.1V61h2.1V82.4z"/>
			<g>
				<path fill="#FFFFFF" d="M78.1,71.9c0-0.1,0-0.1,0-0.2c0,0,0,0,0-0.1C78.1,71.7,78.1,71.8,78.1,71.9z"/>
				<path fill="#FFFFFF" d="M78.1,71.7v-0.1C78.1,71.6,78.1,71.6,78.1,71.7C78.1,71.6,78.1,71.7,78.1,71.7z"/>
				<path opacity="0.5" fill="#FFFFFF" d="M78.1,71.7v-0.1C78.1,71.6,78.1,71.6,78.1,71.7C78.1,71.6,78.1,71.7,78.1,71.7z"/>
				<path fill="#FFFFFF" d="M76.1,44.2v20.5H76c0,0,2.1,2.9,2.2,6.8h0V44.2H76.1z"/>
				<path fill="#FFFFFF" d="M76.1,44.2v20.5H76c-1.8-2.7-4.9-4.2-8.2-4.2c-6.4,0-10.4,4.8-10.4,11c0,6.2,4.1,11.3,10.5,11.3
					c0.1,0,0.3,0,0.4,0v0c5.7,0,9.4-4.5,9.8-10.3c0-0.1,0-0.2,0-0.3c0-0.1,0-0.2,0-0.3c0-0.1,0-0.2,0-0.3c0,0,0-0.1,0-0.1v0V44.2
					H76.1z M76.2,71.5C76.2,71.5,76.2,71.5,76.2,71.5c0,0.2,0,0.3,0,0.5c0,0,0,0,0,0c0,0.1,0,0.2,0,0.2c-0.4,4.7-3.3,8.6-8.4,8.6
					c-5.2,0-8.4-4.4-8.4-9.3c0-4.6,3.4-9.1,8.3-9.1c5.2,0,8.6,3.9,8.6,8.8C76.2,71.4,76.2,71.5,76.2,71.5L76.2,71.5z"/>
			</g>
			<g>
				<path fill="#FFFFFF" d="M102.2,71.5c0,0.1,0,0.1,0,0.2c0,0,0,0,0,0.1C102.2,71.6,102.2,71.5,102.2,71.5z"/>
				<path fill="#FFFFFF" d="M102.2,71.7v0.1C102.2,71.8,102.2,71.8,102.2,71.7C102.2,71.7,102.2,71.7,102.2,71.7z"/>
				<path opacity="0.5" fill="#FFFFFF" d="M102.2,71.7v0.1C102.2,71.8,102.2,71.8,102.2,71.7C102.2,71.7,102.2,71.7,102.2,71.7z"/>
				<path fill="#FFFFFF" d="M104.2,94.5V78.7h0.1c0,0-2.1-2.9-2.2-6.8h0v22.7H104.2z"/>
				<path fill="#FFFFFF" d="M104.2,94.5V78.7h0.1c1.8,2.7,4.9,4.2,8.2,4.2c6.4,0,10.4-4.8,10.4-11c0-6.2-4.1-11.3-10.5-11.3
					c-0.1,0-0.3,0-0.4,0v0c-5.7,0-9.5,4.5-9.8,10.3c0,0.1,0,0.2,0,0.3c0,0.1,0,0.2,0,0.3c0,0.1,0,0.2,0,0.3c0,0,0,0.1,0,0.1v0v22.7
					H104.2z M104.1,71.8C104.1,71.8,104.1,71.8,104.1,71.8c0-0.2,0-0.3,0-0.5c0,0,0,0,0,0c0-0.1,0-0.2,0-0.2
					c0.4-4.7,3.3-8.6,8.4-8.6c5.2,0,8.4,4.4,8.4,9.3c0,4.6-3.4,9.1-8.3,9.1c-5.2,0-8.6-3.9-8.6-8.8C104.1,72,104.1,71.9,104.1,71.8
					L104.1,71.8z"/>
			</g>
		</g>
		<g>
			<path fill="#FFFFFF" d="M19.8,91.1c0,2.3-1.4,3.6-3.2,3.6c-1.8,0-3.1-1.4-3.1-3.4c0-2.2,1.3-3.6,3.2-3.6
				C18.6,87.6,19.8,89,19.8,91.1z M14.6,91.2c0,1.5,0.8,2.7,2.2,2.7c1.4,0,2.2-1.3,2.2-2.8c0-1.3-0.7-2.8-2.2-2.8
				C15.3,88.3,14.6,89.7,14.6,91.2z"/>
			<path fill="#FFFFFF" d="M21.5,91.2c0-0.6,0-1.1,0-1.6h0.8l0,0.8h0c0.4-0.6,0.9-0.9,1.7-0.9c1.2,0,2.1,1,2.1,2.5
				c0,1.8-1.1,2.6-2.2,2.6c-0.6,0-1.2-0.3-1.5-0.8h0v2.6h-0.9V91.2z M22.4,92.5c0,0.1,0,0.3,0,0.4c0.2,0.6,0.7,1,1.3,1
				c0.9,0,1.5-0.8,1.5-1.9c0-1-0.5-1.8-1.5-1.8c-0.6,0-1.2,0.4-1.3,1.1c0,0.1-0.1,0.2-0.1,0.4V92.5z"/>
			<path fill="#FFFFFF" d="M28.3,92.2c0,1.2,0.8,1.7,1.7,1.7c0.6,0,1-0.1,1.3-0.3l0.2,0.6c-0.3,0.1-0.8,0.3-1.6,0.3
				c-1.5,0-2.4-1-2.4-2.5c0-1.5,0.9-2.6,2.3-2.6c1.6,0,2,1.4,2,2.3c0,0.2,0,0.3,0,0.4H28.3z M30.9,91.6c0-0.6-0.2-1.4-1.2-1.4
				c-0.9,0-1.3,0.8-1.4,1.4H30.9z M31.2,87.5L29.9,89h-0.6l0.9-1.4H31.2z"/>
			<path fill="#FFFFFF" d="M33.4,91.2c0-0.6,0-1.1,0-1.5h0.8l0,1h0c0.2-0.7,0.8-1.1,1.3-1.1c0.1,0,0.2,0,0.3,0v0.8
				c-0.1,0-0.2,0-0.3,0c-0.6,0-1.1,0.5-1.2,1.1c0,0.1,0,0.3,0,0.4v2.6h-0.9V91.2z"/>
			<path fill="#FFFFFF" d="M39.9,94.5l-0.1-0.6h0c-0.3,0.4-0.8,0.7-1.5,0.7c-1,0-1.5-0.7-1.5-1.4c0-1.2,1-1.8,2.9-1.8v-0.1
				c0-0.4-0.1-1.1-1.1-1.1c-0.5,0-0.9,0.1-1.3,0.4L37.2,90c0.4-0.3,1-0.4,1.6-0.4c1.5,0,1.9,1,1.9,2v1.8c0,0.4,0,0.8,0.1,1.2H39.9z
				 M39.8,92c-1,0-2.1,0.2-2.1,1.1c0,0.6,0.4,0.8,0.8,0.8c0.6,0,1-0.4,1.2-0.8c0-0.1,0.1-0.2,0.1-0.3V92z"/>
			<path fill="#FFFFFF" d="M43.6,88.2v1.4h1.3v0.7h-1.3v2.6c0,0.6,0.2,0.9,0.7,0.9c0.2,0,0.4,0,0.5-0.1l0,0.7
				c-0.2,0.1-0.4,0.1-0.8,0.1c-0.4,0-0.7-0.1-1-0.4c-0.3-0.3-0.3-0.7-0.3-1.3v-2.7H42v-0.7h0.8v-1.2L43.6,88.2z"/>
			<path fill="#FFFFFF" d="M46.8,92.2c0,1.2,0.8,1.7,1.7,1.7c0.6,0,1-0.1,1.3-0.3l0.2,0.6c-0.3,0.1-0.8,0.3-1.6,0.3
				c-1.5,0-2.4-1-2.4-2.5c0-1.5,0.9-2.6,2.3-2.6c1.6,0,2,1.4,2,2.3c0,0.2,0,0.3,0,0.4H46.8z M49.4,91.6c0-0.6-0.2-1.4-1.2-1.4
				c-0.9,0-1.3,0.8-1.4,1.4H49.4z"/>
			<path fill="#FFFFFF" d="M55.9,93.2c0,0.5,0,0.9,0,1.3h-0.8l-0.1-0.8h0c-0.2,0.4-0.7,0.9-1.6,0.9c-0.8,0-1.7-0.4-1.7-2.1v-2.8h0.9
				v2.7c0,0.9,0.3,1.6,1.1,1.6c0.6,0,1-0.4,1.2-0.8C55,93,55,92.8,55,92.6v-3h0.9V93.2z"/>
			<path fill="#FFFFFF" d="M57.9,91.2c0-0.6,0-1.1,0-1.5h0.8l0,1h0c0.2-0.7,0.8-1.1,1.3-1.1c0.1,0,0.2,0,0.3,0v0.8
				c-0.1,0-0.2,0-0.3,0c-0.6,0-1.1,0.5-1.2,1.1c0,0.1,0,0.3,0,0.4v2.6h-0.9V91.2z"/>
			<path fill="#FFFFFF" d="M65.6,88.5h-2.1v-0.7h5v0.7h-2.1v6h-0.9V88.5z"/>
			<path fill="#FFFFFF" d="M69.7,92.2c0,1.2,0.8,1.7,1.7,1.7c0.6,0,1-0.1,1.3-0.3l0.2,0.6c-0.3,0.1-0.8,0.3-1.6,0.3
				c-1.5,0-2.4-1-2.4-2.5c0-1.5,0.9-2.6,2.3-2.6c1.6,0,2,1.4,2,2.3c0,0.2,0,0.3,0,0.4H69.7z M72.3,91.6c0-0.6-0.2-1.4-1.2-1.4
				c-0.9,0-1.3,0.8-1.4,1.4H72.3z M72.5,87.5L71.3,89h-0.6l0.9-1.4H72.5z"/>
			<path fill="#FFFFFF" d="M74.8,87.4h0.9v7.2h-0.9V87.4z"/>
			<path fill="#FFFFFF" d="M78.2,92.2c0,1.2,0.8,1.7,1.7,1.7c0.6,0,1-0.1,1.3-0.3l0.2,0.6c-0.3,0.1-0.8,0.3-1.6,0.3
				c-1.5,0-2.4-1-2.4-2.5c0-1.5,0.9-2.6,2.3-2.6c1.6,0,2,1.4,2,2.3c0,0.2,0,0.3,0,0.4H78.2z M80.8,91.6c0-0.6-0.2-1.4-1.2-1.4
				c-0.9,0-1.3,0.8-1.4,1.4H80.8z M81,87.5L79.8,89h-0.6l0.9-1.4H81z"/>
			<path fill="#FFFFFF" d="M86.8,94.3c-0.2,0.1-0.7,0.3-1.4,0.3c-1.5,0-2.4-1-2.4-2.5c0-1.5,1-2.6,2.6-2.6c0.5,0,1,0.1,1.2,0.3
				l-0.2,0.7c-0.2-0.1-0.5-0.2-1-0.2c-1.1,0-1.7,0.8-1.7,1.8c0,1.1,0.7,1.8,1.7,1.8c0.5,0,0.8-0.1,1.1-0.2L86.8,94.3z"/>
			<path fill="#FFFFFF" d="M92.6,92c0,1.8-1.2,2.6-2.4,2.6c-1.3,0-2.3-1-2.3-2.5c0-1.6,1.1-2.6,2.4-2.6C91.7,89.5,92.6,90.5,92.6,92
				z M88.8,92.1c0,1.1,0.6,1.9,1.5,1.9c0.8,0,1.5-0.8,1.5-1.9c0-0.8-0.4-1.9-1.5-1.9C89.2,90.2,88.8,91.2,88.8,92.1z"/>
			<path fill="#FFFFFF" d="M94.3,91c0-0.5,0-0.9,0-1.3H95l0,0.8h0c0.3-0.5,0.7-0.9,1.5-0.9c0.7,0,1.2,0.4,1.4,1h0
				c0.2-0.3,0.3-0.5,0.5-0.6c0.3-0.2,0.6-0.3,1.1-0.3c0.6,0,1.6,0.4,1.6,2.1v2.9h-0.9v-2.8c0-0.9-0.3-1.5-1.1-1.5
				c-0.5,0-0.9,0.4-1,0.8c0,0.1-0.1,0.3-0.1,0.4v3h-0.9v-2.9c0-0.8-0.3-1.3-1-1.3c-0.6,0-1,0.4-1.1,0.9c-0.1,0.1-0.1,0.3-0.1,0.4
				v2.9h-0.9V91z"/>
		</g>
	</g>
</g>
</svg>
